<mxfile host="app.diagrams.net" modified="2024-02-01T13:07:03.832Z" agent="Mozilla/5.0 (Windows NT 10.0; Win64; x64) AppleWebKit/537.36 (KHTML, like Gecko) Chrome/121.0.0.0 Safari/537.36" etag="MfMxSqtlO0BRo7dlB7Te" version="23.0.2" type="github">
  <diagram name="第 1 页" id="a5UMHPssw-oFXYJvmg0h">
    <mxGraphModel dx="1434" dy="746" grid="1" gridSize="10" guides="1" tooltips="1" connect="1" arrows="1" fold="1" page="1" pageScale="1" pageWidth="827" pageHeight="1169" math="0" shadow="0">
      <root>
        <mxCell id="0" />
        <mxCell id="1" parent="0" />
        <mxCell id="8wiE_rNxjlX-vsqhIwx7-1" value="" style="endArrow=none;dashed=1;html=1;rounded=0;" edge="1" parent="1">
          <mxGeometry width="50" height="50" relative="1" as="geometry">
            <mxPoint x="160" y="440" as="sourcePoint" />
            <mxPoint x="1080" y="440" as="targetPoint" />
          </mxGeometry>
        </mxCell>
        <mxCell id="8wiE_rNxjlX-vsqhIwx7-2" value="" style="endArrow=none;dashed=1;html=1;rounded=0;" edge="1" parent="1">
          <mxGeometry width="50" height="50" relative="1" as="geometry">
            <mxPoint x="160" y="640" as="sourcePoint" />
            <mxPoint x="1080" y="640" as="targetPoint" />
          </mxGeometry>
        </mxCell>
        <mxCell id="8wiE_rNxjlX-vsqhIwx7-3" value="认知层" style="text;html=1;strokeColor=none;fillColor=none;align=center;verticalAlign=middle;whiteSpace=wrap;rounded=0;fontSize=20;" vertex="1" parent="1">
          <mxGeometry x="40" y="330" width="110" height="30" as="geometry" />
        </mxCell>
        <mxCell id="8wiE_rNxjlX-vsqhIwx7-4" value="交互层" style="text;html=1;strokeColor=none;fillColor=none;align=center;verticalAlign=middle;whiteSpace=wrap;rounded=0;fontSize=20;" vertex="1" parent="1">
          <mxGeometry x="40" y="530" width="110" height="30" as="geometry" />
        </mxCell>
        <mxCell id="8wiE_rNxjlX-vsqhIwx7-5" value="动力层" style="text;html=1;strokeColor=none;fillColor=none;align=center;verticalAlign=middle;whiteSpace=wrap;rounded=0;fontSize=20;" vertex="1" parent="1">
          <mxGeometry x="40" y="720" width="110" height="30" as="geometry" />
        </mxCell>
        <mxCell id="8wiE_rNxjlX-vsqhIwx7-10" style="rounded=0;orthogonalLoop=1;jettySize=auto;html=1;endArrow=none;endFill=0;" edge="1" parent="1" source="8wiE_rNxjlX-vsqhIwx7-7" target="8wiE_rNxjlX-vsqhIwx7-8">
          <mxGeometry relative="1" as="geometry" />
        </mxCell>
        <mxCell id="8wiE_rNxjlX-vsqhIwx7-22" style="edgeStyle=none;shape=connector;rounded=0;orthogonalLoop=1;jettySize=auto;html=1;entryX=0.5;entryY=1;entryDx=0;entryDy=0;labelBackgroundColor=default;strokeColor=default;align=center;verticalAlign=middle;fontFamily=Helvetica;fontSize=11;fontColor=default;endArrow=none;endFill=0;" edge="1" parent="1" source="8wiE_rNxjlX-vsqhIwx7-7" target="8wiE_rNxjlX-vsqhIwx7-21">
          <mxGeometry relative="1" as="geometry" />
        </mxCell>
        <mxCell id="8wiE_rNxjlX-vsqhIwx7-7" value="节能" style="rounded=1;whiteSpace=wrap;html=1;fillColor=#e1d5e7;strokeColor=#9673a6;" vertex="1" parent="1">
          <mxGeometry x="400" y="680" width="80" height="40" as="geometry" />
        </mxCell>
        <mxCell id="8wiE_rNxjlX-vsqhIwx7-12" style="rounded=0;orthogonalLoop=1;jettySize=auto;html=1;entryX=0.5;entryY=1;entryDx=0;entryDy=0;endArrow=none;endFill=0;" edge="1" parent="1" source="8wiE_rNxjlX-vsqhIwx7-8" target="8wiE_rNxjlX-vsqhIwx7-11">
          <mxGeometry relative="1" as="geometry" />
        </mxCell>
        <mxCell id="8wiE_rNxjlX-vsqhIwx7-17" style="edgeStyle=none;shape=connector;rounded=0;orthogonalLoop=1;jettySize=auto;html=1;entryX=0.5;entryY=1;entryDx=0;entryDy=0;labelBackgroundColor=default;strokeColor=default;align=center;verticalAlign=middle;fontFamily=Helvetica;fontSize=11;fontColor=default;endArrow=none;endFill=0;" edge="1" parent="1" source="8wiE_rNxjlX-vsqhIwx7-8" target="8wiE_rNxjlX-vsqhIwx7-16">
          <mxGeometry relative="1" as="geometry" />
        </mxCell>
        <mxCell id="8wiE_rNxjlX-vsqhIwx7-8" value="行为处理模式" style="rounded=1;whiteSpace=wrap;html=1;fillColor=#d5e8d4;strokeColor=#82b366;" vertex="1" parent="1">
          <mxGeometry x="280" y="560" width="80" height="40" as="geometry" />
        </mxCell>
        <mxCell id="8wiE_rNxjlX-vsqhIwx7-9" value="习惯" style="rounded=1;whiteSpace=wrap;html=1;fillColor=#dae8fc;strokeColor=#6c8ebf;" vertex="1" parent="1">
          <mxGeometry x="320" y="360" width="80" height="40" as="geometry" />
        </mxCell>
        <mxCell id="8wiE_rNxjlX-vsqhIwx7-13" style="edgeStyle=none;shape=connector;rounded=0;orthogonalLoop=1;jettySize=auto;html=1;entryX=0.5;entryY=1;entryDx=0;entryDy=0;labelBackgroundColor=default;strokeColor=default;align=center;verticalAlign=middle;fontFamily=Helvetica;fontSize=11;fontColor=default;endArrow=none;endFill=0;" edge="1" parent="1" source="8wiE_rNxjlX-vsqhIwx7-11" target="8wiE_rNxjlX-vsqhIwx7-9">
          <mxGeometry relative="1" as="geometry" />
        </mxCell>
        <mxCell id="8wiE_rNxjlX-vsqhIwx7-11" value="自动化加工" style="rounded=1;whiteSpace=wrap;html=1;fillColor=#d5e8d4;strokeColor=#82b366;" vertex="1" parent="1">
          <mxGeometry x="360" y="480" width="80" height="40" as="geometry" />
        </mxCell>
        <mxCell id="8wiE_rNxjlX-vsqhIwx7-15" style="edgeStyle=none;shape=connector;rounded=0;orthogonalLoop=1;jettySize=auto;html=1;entryX=0.5;entryY=1;entryDx=0;entryDy=0;labelBackgroundColor=default;strokeColor=default;align=center;verticalAlign=middle;fontFamily=Helvetica;fontSize=11;fontColor=default;endArrow=none;endFill=0;" edge="1" parent="1" source="8wiE_rNxjlX-vsqhIwx7-14" target="8wiE_rNxjlX-vsqhIwx7-7">
          <mxGeometry relative="1" as="geometry" />
        </mxCell>
        <mxCell id="8wiE_rNxjlX-vsqhIwx7-14" value="趋利避害" style="rounded=1;whiteSpace=wrap;html=1;fillColor=#e1d5e7;strokeColor=#9673a6;" vertex="1" parent="1">
          <mxGeometry x="520" y="740" width="80" height="40" as="geometry" />
        </mxCell>
        <mxCell id="8wiE_rNxjlX-vsqhIwx7-20" style="edgeStyle=none;shape=connector;rounded=0;orthogonalLoop=1;jettySize=auto;html=1;entryX=0.5;entryY=1;entryDx=0;entryDy=0;labelBackgroundColor=default;strokeColor=default;align=center;verticalAlign=middle;fontFamily=Helvetica;fontSize=11;fontColor=default;endArrow=none;endFill=0;" edge="1" parent="1" source="8wiE_rNxjlX-vsqhIwx7-16" target="8wiE_rNxjlX-vsqhIwx7-19">
          <mxGeometry relative="1" as="geometry" />
        </mxCell>
        <mxCell id="8wiE_rNxjlX-vsqhIwx7-16" value="控制加工" style="rounded=1;whiteSpace=wrap;html=1;fillColor=#d5e8d4;strokeColor=#82b366;" vertex="1" parent="1">
          <mxGeometry x="200" y="480" width="80" height="40" as="geometry" />
        </mxCell>
        <mxCell id="8wiE_rNxjlX-vsqhIwx7-19" value="学习" style="rounded=1;whiteSpace=wrap;html=1;fillColor=#dae8fc;strokeColor=#6c8ebf;" vertex="1" parent="1">
          <mxGeometry x="170" y="380" width="80" height="40" as="geometry" />
        </mxCell>
        <mxCell id="8wiE_rNxjlX-vsqhIwx7-25" style="edgeStyle=none;shape=connector;rounded=0;orthogonalLoop=1;jettySize=auto;html=1;entryX=0.5;entryY=1;entryDx=0;entryDy=0;labelBackgroundColor=default;strokeColor=default;align=center;verticalAlign=middle;fontFamily=Helvetica;fontSize=11;fontColor=default;endArrow=none;endFill=0;" edge="1" parent="1" source="8wiE_rNxjlX-vsqhIwx7-21" target="8wiE_rNxjlX-vsqhIwx7-23">
          <mxGeometry relative="1" as="geometry" />
        </mxCell>
        <mxCell id="8wiE_rNxjlX-vsqhIwx7-26" style="edgeStyle=none;shape=connector;rounded=0;orthogonalLoop=1;jettySize=auto;html=1;entryX=0.5;entryY=1;entryDx=0;entryDy=0;labelBackgroundColor=default;strokeColor=default;align=center;verticalAlign=middle;fontFamily=Helvetica;fontSize=11;fontColor=default;endArrow=none;endFill=0;" edge="1" parent="1" source="8wiE_rNxjlX-vsqhIwx7-21" target="8wiE_rNxjlX-vsqhIwx7-24">
          <mxGeometry relative="1" as="geometry" />
        </mxCell>
        <mxCell id="8wiE_rNxjlX-vsqhIwx7-21" value="认知过程" style="rounded=1;whiteSpace=wrap;html=1;fillColor=#d5e8d4;strokeColor=#82b366;" vertex="1" parent="1">
          <mxGeometry x="747" y="560" width="80" height="40" as="geometry" />
        </mxCell>
        <mxCell id="8wiE_rNxjlX-vsqhIwx7-28" style="edgeStyle=none;shape=connector;rounded=0;orthogonalLoop=1;jettySize=auto;html=1;entryX=0.5;entryY=1;entryDx=0;entryDy=0;labelBackgroundColor=default;strokeColor=default;align=center;verticalAlign=middle;fontFamily=Helvetica;fontSize=11;fontColor=default;endArrow=none;endFill=0;" edge="1" parent="1" source="8wiE_rNxjlX-vsqhIwx7-23" target="8wiE_rNxjlX-vsqhIwx7-27">
          <mxGeometry relative="1" as="geometry" />
        </mxCell>
        <mxCell id="8wiE_rNxjlX-vsqhIwx7-33" style="edgeStyle=none;shape=connector;rounded=0;orthogonalLoop=1;jettySize=auto;html=1;entryX=0.5;entryY=1;entryDx=0;entryDy=0;labelBackgroundColor=default;strokeColor=default;align=center;verticalAlign=middle;fontFamily=Helvetica;fontSize=11;fontColor=default;endArrow=none;endFill=0;" edge="1" parent="1" source="8wiE_rNxjlX-vsqhIwx7-23" target="8wiE_rNxjlX-vsqhIwx7-32">
          <mxGeometry relative="1" as="geometry" />
        </mxCell>
        <mxCell id="8wiE_rNxjlX-vsqhIwx7-44" style="edgeStyle=none;shape=connector;rounded=0;orthogonalLoop=1;jettySize=auto;html=1;entryX=1;entryY=0.5;entryDx=0;entryDy=0;labelBackgroundColor=default;strokeColor=default;align=center;verticalAlign=middle;fontFamily=Helvetica;fontSize=11;fontColor=default;endArrow=none;endFill=0;" edge="1" parent="1" source="8wiE_rNxjlX-vsqhIwx7-23" target="8wiE_rNxjlX-vsqhIwx7-43">
          <mxGeometry relative="1" as="geometry" />
        </mxCell>
        <mxCell id="8wiE_rNxjlX-vsqhIwx7-23" value="快思考" style="rounded=1;whiteSpace=wrap;html=1;fillColor=#d5e8d4;strokeColor=#82b366;" vertex="1" parent="1">
          <mxGeometry x="667" y="490" width="80" height="40" as="geometry" />
        </mxCell>
        <mxCell id="8wiE_rNxjlX-vsqhIwx7-31" style="edgeStyle=none;shape=connector;rounded=0;orthogonalLoop=1;jettySize=auto;html=1;entryX=0.5;entryY=1;entryDx=0;entryDy=0;labelBackgroundColor=default;strokeColor=default;align=center;verticalAlign=middle;fontFamily=Helvetica;fontSize=11;fontColor=default;endArrow=none;endFill=0;" edge="1" parent="1" source="8wiE_rNxjlX-vsqhIwx7-24" target="8wiE_rNxjlX-vsqhIwx7-30">
          <mxGeometry relative="1" as="geometry" />
        </mxCell>
        <mxCell id="8wiE_rNxjlX-vsqhIwx7-42" style="edgeStyle=none;shape=connector;rounded=0;orthogonalLoop=1;jettySize=auto;html=1;entryX=0.5;entryY=1;entryDx=0;entryDy=0;labelBackgroundColor=default;strokeColor=default;align=center;verticalAlign=middle;fontFamily=Helvetica;fontSize=11;fontColor=default;endArrow=none;endFill=0;" edge="1" parent="1" source="8wiE_rNxjlX-vsqhIwx7-24" target="8wiE_rNxjlX-vsqhIwx7-40">
          <mxGeometry relative="1" as="geometry" />
        </mxCell>
        <mxCell id="8wiE_rNxjlX-vsqhIwx7-49" style="edgeStyle=none;shape=connector;rounded=0;orthogonalLoop=1;jettySize=auto;html=1;entryX=0.5;entryY=1;entryDx=0;entryDy=0;labelBackgroundColor=default;strokeColor=default;align=center;verticalAlign=middle;fontFamily=Helvetica;fontSize=11;fontColor=default;endArrow=none;endFill=0;" edge="1" parent="1" source="8wiE_rNxjlX-vsqhIwx7-24" target="8wiE_rNxjlX-vsqhIwx7-48">
          <mxGeometry relative="1" as="geometry" />
        </mxCell>
        <mxCell id="8wiE_rNxjlX-vsqhIwx7-24" value="慢思考" style="rounded=1;whiteSpace=wrap;html=1;fillColor=#d5e8d4;strokeColor=#82b366;" vertex="1" parent="1">
          <mxGeometry x="900" y="490" width="80" height="40" as="geometry" />
        </mxCell>
        <mxCell id="8wiE_rNxjlX-vsqhIwx7-35" style="edgeStyle=none;shape=connector;rounded=0;orthogonalLoop=1;jettySize=auto;html=1;entryX=0.5;entryY=1;entryDx=0;entryDy=0;labelBackgroundColor=default;strokeColor=default;align=center;verticalAlign=middle;fontFamily=Helvetica;fontSize=11;fontColor=default;endArrow=none;endFill=0;" edge="1" parent="1" source="8wiE_rNxjlX-vsqhIwx7-27" target="8wiE_rNxjlX-vsqhIwx7-34">
          <mxGeometry relative="1" as="geometry" />
        </mxCell>
        <mxCell id="8wiE_rNxjlX-vsqhIwx7-27" value="直觉" style="rounded=1;whiteSpace=wrap;html=1;fillColor=#dae8fc;strokeColor=#6c8ebf;" vertex="1" parent="1">
          <mxGeometry x="620" y="340" width="80" height="40" as="geometry" />
        </mxCell>
        <mxCell id="8wiE_rNxjlX-vsqhIwx7-30" value="决策" style="rounded=1;whiteSpace=wrap;html=1;fillColor=#dae8fc;strokeColor=#6c8ebf;" vertex="1" parent="1">
          <mxGeometry x="820" y="360" width="80" height="40" as="geometry" />
        </mxCell>
        <mxCell id="8wiE_rNxjlX-vsqhIwx7-32" value="情绪" style="rounded=1;whiteSpace=wrap;html=1;fillColor=#dae8fc;strokeColor=#6c8ebf;" vertex="1" parent="1">
          <mxGeometry x="720" y="300" width="80" height="40" as="geometry" />
        </mxCell>
        <mxCell id="8wiE_rNxjlX-vsqhIwx7-34" value="刻板印象" style="rounded=1;whiteSpace=wrap;html=1;fillColor=#dae8fc;strokeColor=#6c8ebf;" vertex="1" parent="1">
          <mxGeometry x="560" y="260" width="80" height="40" as="geometry" />
        </mxCell>
        <mxCell id="8wiE_rNxjlX-vsqhIwx7-39" style="edgeStyle=none;shape=connector;rounded=0;orthogonalLoop=1;jettySize=auto;html=1;entryX=0.5;entryY=1;entryDx=0;entryDy=0;labelBackgroundColor=default;strokeColor=default;align=center;verticalAlign=middle;fontFamily=Helvetica;fontSize=11;fontColor=default;endArrow=none;endFill=0;" edge="1" parent="1" source="8wiE_rNxjlX-vsqhIwx7-37" target="8wiE_rNxjlX-vsqhIwx7-14">
          <mxGeometry relative="1" as="geometry" />
        </mxCell>
        <mxCell id="8wiE_rNxjlX-vsqhIwx7-37" value="生存繁衍" style="rounded=1;whiteSpace=wrap;html=1;fillColor=#e1d5e7;strokeColor=#9673a6;" vertex="1" parent="1">
          <mxGeometry x="680" y="800" width="80" height="40" as="geometry" />
        </mxCell>
        <mxCell id="8wiE_rNxjlX-vsqhIwx7-40" value="推理" style="rounded=1;whiteSpace=wrap;html=1;fillColor=#dae8fc;strokeColor=#6c8ebf;" vertex="1" parent="1">
          <mxGeometry x="930" y="330" width="80" height="40" as="geometry" />
        </mxCell>
        <mxCell id="8wiE_rNxjlX-vsqhIwx7-43" value="认知流畅性" style="rounded=1;whiteSpace=wrap;html=1;fillColor=#d5e8d4;strokeColor=#82b366;" vertex="1" parent="1">
          <mxGeometry x="530" y="470" width="80" height="40" as="geometry" />
        </mxCell>
        <mxCell id="8wiE_rNxjlX-vsqhIwx7-46" style="edgeStyle=none;shape=connector;rounded=0;orthogonalLoop=1;jettySize=auto;html=1;labelBackgroundColor=default;strokeColor=default;align=center;verticalAlign=middle;fontFamily=Helvetica;fontSize=11;fontColor=default;endArrow=none;endFill=0;" edge="1" parent="1" source="8wiE_rNxjlX-vsqhIwx7-45" target="8wiE_rNxjlX-vsqhIwx7-43">
          <mxGeometry relative="1" as="geometry" />
        </mxCell>
        <mxCell id="8wiE_rNxjlX-vsqhIwx7-45" value="谣言&amp;amp;金句" style="rounded=1;whiteSpace=wrap;html=1;fillColor=#dae8fc;strokeColor=#6c8ebf;" vertex="1" parent="1">
          <mxGeometry x="480" y="360" width="80" height="40" as="geometry" />
        </mxCell>
        <mxCell id="8wiE_rNxjlX-vsqhIwx7-48" value="策略" style="rounded=1;whiteSpace=wrap;html=1;fillColor=#dae8fc;strokeColor=#6c8ebf;" vertex="1" parent="1">
          <mxGeometry x="1010" y="380" width="80" height="40" as="geometry" />
        </mxCell>
      </root>
    </mxGraphModel>
  </diagram>
</mxfile>
